<svg version="1.2" xmlns="http://www.w3.org/2000/svg" viewBox="0 0 24 24" width="24" height="24"><style>.a{fill:#fff}</style><path fill-rule="evenodd" class="a" d="m24 0v24h-24v-24zm-4 12c0-4.4-3.6-8-8-8-4.4 0-8 3.6-8 8 0 3.4 2.1 6.3 5.1 7.4-0.1-0.6-0.2-1.6 0-2.2 0.2-0.7 0.9-4 0.9-4 0 0-0.2-0.5-0.2-1.2 0-1.1 0.7-2 1.5-2 0.6 0 1 0.6 1 1.2 0 0.7-0.5 1.7-0.7 2.6-0.2 0.8 0.4 1.5 1.2 1.5 1.4 0 2.5-1.5 2.5-3.7 0-1.9-1.4-3.2-3.3-3.2-2.3 0-3.6 1.7-3.6 3.4 0 0.7 0.2 1.5 0.5 1.9q0.1 0.1 0.1 0.2l-0.2 0.9q-0.1 0.2-0.3 0.1c-1-0.5-1.6-1.9-1.6-3.1 0-2.5 1.8-4.8 5.3-4.8 2.8 0 4.9 1.9 4.9 4.6 0 2.7-1.7 5-4.1 5-0.9 0-1.6-0.5-1.9-1l-0.5 1.9c-0.2 0.7-0.6 1.6-1 2.1q1.2 0.4 2.4 0.4c4.4 0 8-3.6 8-8z"/></svg>