<svg version="1.2" xmlns="http://www.w3.org/2000/svg" viewBox="0 0 24 24" width="24" height="24"><style>.a{fill:#fff}</style><path fill-rule="evenodd" class="a" d="m24 5v14c0 2.8-2.2 5-5 5h-14c-2.8 0-5-2.2-5-5v-14c0-2.8 2.2-5 5-5h14c2.8 0 5 2.2 5 5zm-5.3 10.7c0-3-0.3-4.1-2.1-4.3-1.8-0.1-7.4-0.1-9.2 0-1.8 0.1-2.1 1.3-2.1 4.3 0 2.9 0.3 4.1 2.1 4.2 1.8 0.1 7.4 0.1 9.2 0 1.8-0.1 2.1-1.3 2.1-4.2zm-4-0.5v2.4c0 0.6-0.2 1-0.8 1-0.3 0-0.5-0.1-0.7-0.4v0.3h-0.8v-5.8h0.8v1.9c0.2-0.3 0.4-0.4 0.7-0.4 0.6 0 0.8 0.5 0.8 1zm-4.4-8.4v2.2q0 1.3 1.2 1.3c0.7 0 1.2-0.5 1.2-1.3v-2.2c0-0.7-0.5-1.2-1.2-1.2-0.7 0-1.2 0.5-1.2 1.2zm0.5 7.4h0.8v4.3h-0.8v-0.4q-0.3 0.2-0.5 0.4c-0.4 0.2-1 0.2-1-0.7v-3.6h0.8v3.3c0 0.2 0 0.3 0.2 0.3 0.1 0 0.4-0.2 0.5-0.3zm-1.5-0.7h-1v5h-0.9v-5h-0.9v-0.8h2.8c0 0 0 0.8 0 0.8zm4.1-4.1c0 0.5 0.2 0.8 0.6 0.8 0.3 0 0.6-0.1 1-0.5v0.5h0.9v-4.6h-0.9v3.5c-0.1 0.1-0.3 0.3-0.5 0.3-0.2 0-0.2-0.1-0.2-0.3v-3.5h-0.9zm-2.3-0.4v-2.1c0-0.3 0.1-0.5 0.4-0.5 0.2 0 0.4 0.2 0.4 0.5v2.1c0 0.2-0.2 0.4-0.4 0.4-0.2 0-0.4-0.2-0.4-0.4zm-4-5l1.1 3.7v2.5h1v-2.5l1.1-3.7h-1l-0.6 2.5-0.6-2.5zm6.7 11.3q0-0.2-0.1-0.4c-0.1-0.1-0.3-0.1-0.4 0l-0.2 0.1v2.7l0.2 0.2c0.2 0 0.3 0 0.4-0.1q0.1-0.1 0.1-0.3c0 0 0-2.2 0-2.2zm3.8 0.1v1.1h-1.5v0.8c0 0.3 0 0.6 0.3 0.6 0.4 0 0.4-0.2 0.4-0.6v-0.3h0.8v0.3c0 0.8-0.3 1.3-1.2 1.3-0.8 0-1.2-0.5-1.2-1.3v-1.9c0-0.8 0.5-1.3 1.3-1.3 0.7 0 1.1 0.5 1.1 1.3zm-0.8 0c0-0.3-0.1-0.6-0.4-0.6-0.3 0-0.3 0.3-0.3 0.6v0.4h0.7z"/></svg>