<svg version="1.2" xmlns="http://www.w3.org/2000/svg" viewBox="0 0 24 24" width="24" height="24"><style>.a{fill:#fff}</style><path fill-rule="evenodd" class="a" d="m16.9 0.1c1.9 0.1 3.7 0.6 5.1 1.9 1.3 1.4 1.8 3.2 1.9 5.1 0.1 1.2 0.1 1.6 0.1 4.9 0 3.3 0 3.7-0.1 4.9-0.1 1.9-0.6 3.7-1.9 5.1-1.4 1.3-3.2 1.8-5.1 1.9-1.2 0.1-1.6 0.1-4.9 0.1-3.3 0-3.7 0-4.9-0.1-1.9-0.1-3.7-0.6-5.1-1.9-1.3-1.4-1.8-3.2-1.9-5.1-0.1-1.2-0.1-1.6-0.1-4.9 0-3.3 0-3.7 0.1-4.9 0.1-1.9 0.6-3.7 1.9-5.1 1.4-1.3 3.2-1.8 5.1-1.9 1.2-0.1 1.6-0.1 4.9-0.1 3.3 0 3.7 0 4.9 0.1zm-9.7 2.1c-1.4 0.1-2.7 0.4-3.7 1.3-0.9 1-1.2 2.4-1.3 3.7 0 1.2 0 1.6 0 4.8 0 3.2 0 3.6 0 4.8 0.1 1.4 0.4 2.7 1.3 3.7 1 0.9 2.4 1.2 3.7 1.3 1.2 0 1.6 0 4.8 0 3.2 0 3.6 0 4.8 0 1.4-0.1 2.7-0.4 3.7-1.3 0.9-1 1.2-2.4 1.3-3.7 0-1.2 0-1.6 0-4.8 0-3.2 0-3.6 0-4.8-0.1-1.4-0.4-2.7-1.3-3.7-1-0.9-2.3-1.2-3.7-1.3-1.2 0-1.6 0-4.8 0-3.2 0-3.6 0-4.8 0z"/><path fill-rule="evenodd" class="a" d="m18.2 12c0 3.4-2.8 6.2-6.2 6.2-3.4 0-6.2-2.8-6.2-6.2 0-3.4 2.8-6.2 6.2-6.2 3.4 0 6.2 2.8 6.2 6.2zm-2.2 0c0-2.2-1.8-4-4-4-2.2 0-4 1.8-4 4 0 2.2 1.8 4 4 4 2.2 0 4-1.8 4-4z"/><path class="a" d="m18.4 7c-0.8 0-1.4-0.6-1.4-1.4 0-0.8 0.6-1.4 1.4-1.4 0.8 0 1.4 0.6 1.4 1.4 0 0.8-0.6 1.4-1.4 1.4z"/></svg>