<svg version="1.2" xmlns="http://www.w3.org/2000/svg" viewBox="0 0 24 24" width="24" height="24"><style>.a{fill:#fff}</style><path class="a" d="m21.5 7.1q0.1 0.3 0.1 0.6c0 6.5-5 14.1-14.1 14.1v-0.1c-2.6 0.1-5.2-0.7-7.5-2.2q0.6 0.1 1.2 0.1c2.2 0 4.3-0.7 6.1-2.1-2.1 0-4-1.4-4.6-3.4q1.1 0.2 2.2-0.1c-2.3-0.5-3.9-2.5-3.9-4.8q0-0.1 0-0.1c0.6 0.4 1.4 0.6 2.2 0.6-2.2-1.4-2.8-4.3-1.5-6.6 2.5 3.1 6.2 5 10.1 5.2-0.4-1.7 0.2-3.5 1.4-4.7 2-1.9 5.1-1.8 7 0.2q1.7-0.3 3.1-1.2c-0.3 1.1-1.1 2.1-2.1 2.7q1.4-0.1 2.8-0.7-1 1.4-2.5 2.5z"/></svg>