<svg version="1.2" xmlns="http://www.w3.org/2000/svg" viewBox="0 0 24 24" width="24" height="24"><style>.a{fill:#fff}</style><path fill-rule="evenodd" class="a" d="m24 11.5v1c0 5.4 0 8.1-1.7 9.8-1.7 1.7-4.4 1.7-9.8 1.7h-1c-5.4 0-8.1 0-9.8-1.7-1.7-1.7-1.7-4.4-1.7-9.8v-1c0-5.4 0-8.1 1.7-9.8 1.7-1.7 4.4-1.7 9.8-1.7h1c5.4 0 8.1 0 9.8 1.7 1.7 1.7 1.7 4.4 1.7 9.8zm-3.9 4.8c-0.2-0.5-0.7-1.2-1.5-2.1-0.4-0.5-1-1-1.2-1.3-0.2-0.3-0.2-0.4 0-0.7 0 0 2.2-3 2.4-4.1 0.1-0.3 0-0.6-0.5-0.6h-1.8c-0.4 0-0.6 0.2-0.8 0.5 0 0-0.9 2.2-2.1 3.6-0.4 0.4-0.6 0.5-0.8 0.5-0.1 0-0.3-0.1-0.3-0.5v-3.5c0-0.4-0.1-0.6-0.5-0.6h-2.8c-0.2 0-0.4 0.2-0.4 0.4 0 0.4 0.6 0.5 0.7 1.7v2.6c0 0.5-0.1 0.7-0.3 0.7-0.6 0-2.1-2.2-2.9-4.7-0.2-0.5-0.4-0.7-0.8-0.7h-1.8c-0.5 0-0.6 0.2-0.6 0.5 0 0.5 0.6 2.8 2.8 5.8 1.5 2.1 3.5 3.2 5.4 3.2 1.1 0 1.2-0.3 1.2-0.7v-1.6c0-0.5 0.1-0.5 0.5-0.5 0.2 0 0.7 0.1 1.7 1.1 1.2 1.2 1.4 1.7 2.1 1.7h1.7c0.5 0 0.8-0.3 0.6-0.7z"/></svg>